<?xml version="1.0" encoding="UTF-8" standalone="no"?>
<svg
   width="100"
   viewBox="0 0 100 100"
   version="1.1"
   id="svg10"
   sodipodi:docname="acs-logo-gear-icon.svg"
   inkscape:version="1.1.2 (0a00cf5339, 2022-02-04)"
   xmlns:inkscape="http://www.inkscape.org/namespaces/inkscape"
   xmlns:sodipodi="http://sodipodi.sourceforge.net/DTD/sodipodi-0.dtd"
   xmlns="http://www.w3.org/2000/svg"
   xmlns:svg="http://www.w3.org/2000/svg">
  <defs
     id="defs14" />
  <sodipodi:namedview
     id="namedview12"
     pagecolor="#ffffff"
     bordercolor="#666666"
     borderopacity="1.0"
     inkscape:pageshadow="2"
     inkscape:pageopacity="0.0"
     inkscape:pagecheckerboard="0"
     showgrid="false"
     lock-margins="true"
     inkscape:zoom="1.955"
     inkscape:cx="-46.29156"
     inkscape:cy="35.038363"
     inkscape:window-width="1850"
     inkscape:window-height="1016"
     inkscape:window-x="0"
     inkscape:window-y="0"
     inkscape:window-maximized="1"
     inkscape:current-layer="svg10" />
  <style
     id="style8" />
  <g
     id="g3121"
     transform="matrix(3.7795276,0,0,3.7795276,-1170.687,-1925.165)">
    <path
       id="path7569"
       d="m 334.19994,521.6264 0.006,-5.3e-4 0.99388,0.19819 1.00352,0.47016 v 0.59916 l -1.00352,0.47016 -0.99388,0.19819 -0.006,-5.3e-4 -0.11267,0.89005 0.006,0.001 0.91331,0.4386 0.85482,0.70449 -0.14928,0.58033 -1.08917,0.20637 -1.01206,-0.0548 -0.006,-0.002 -0.33091,0.83415 0.006,0.002 0.77533,0.65157 0.65242,0.89451 -0.28923,0.525 -1.10634,-0.0704 -0.96665,-0.30421 -0.005,-0.003 -0.52836,0.72577 0.005,0.004 0.58857,0.82349 0.40904,1.02837 -0.41096,0.43672 -1.05401,-0.34284 -0.86046,-0.53453 -0.004,-0.005 -0.69262,0.57185 0.004,0.005 0.36489,0.94372 0.13991,1.09755 -0.50686,0.32105 -0.93547,-0.59371 -0.70023,-0.73132 -0.003,-0.005 -0.81334,0.38196 0.002,0.006 0.11827,1.00464 -0.13798,1.09782 -0.57092,0.18512 -0.75817,-0.80719 -0.496,-0.88214 -0.001,-0.006 -0.88297,0.16808 9.2e-4,0.006 -0.13579,1.00245 -0.40715,1.02907 -0.59913,0.0376 -0.53322,-0.97003 -0.26059,-0.97754 1.1e-4,-0.006 -0.89712,-0.0563 -6.5e-4,0.006 -0.38128,0.93725 -0.65084,0.89569 -0.58966,-0.11227 -0.27474,-1.0719 -0.009,-1.0115 0.002,-0.006 -0.8549,-0.27721 -0.002,0.006 -0.60285,0.81313 -0.85354,0.70602 -0.5432,-0.25509 10e-4,-1.10643 0.24351,-0.98191 0.003,-0.005 -0.75896,-0.48073 -0.004,0.005 -0.78654,0.63797 -1.00269,0.47199 -0.46254,-0.38192 0.27666,-1.07142 0.48054,-0.89062 0.004,-0.004 -0.61533,-0.65397 -0.005,0.004 -0.9208,0.42269 -1.08878,0.20829 -0.35285,-0.48471 0.53493,-0.96906 0.68736,-0.74339 0.005,-0.003 -0.43304,-0.78617 -0.006,0.003 -0.99721,0.18093 -1.10647,-0.0685 -0.22096,-0.55708 0.75961,-0.80584 0.851,-0.54943 0.006,-0.002 -0.22355,-0.86894 -0.006,10e-4 -1.01096,-0.0723 -1.05467,-0.34092 -0.0752,-0.59441 0.93657,-0.59204 0.96117,-0.32091 0.006,-2.6e-4 v -0.89714 l -0.006,-2.6e-4 -0.96117,-0.32091 -0.93657,-0.59205 0.0752,-0.5944 1.05467,-0.34092 1.01096,-0.0723 0.006,0.001 0.22355,-0.86895 -0.006,-0.002 -0.851,-0.54943 -0.75961,-0.80584 0.22096,-0.55708 1.10647,-0.0685 0.99721,0.18093 0.006,0.003 0.43304,-0.78617 -0.005,-0.003 -0.68736,-0.74338 -0.53493,-0.96907 0.35285,-0.48471 1.08878,0.20829 0.9208,0.42269 0.005,0.004 0.61533,-0.65396 -0.004,-0.004 -0.48054,-0.89062 -0.27666,-1.07142 0.46254,-0.38192 1.00269,0.47199 0.78654,0.63798 0.004,0.005 0.75896,-0.48073 -0.003,-0.005 -0.24351,-0.98192 -10e-4,-1.10642 0.5432,-0.2551 0.85354,0.70602 0.60285,0.81314 0.002,0.006 0.8549,-0.27721 -0.002,-0.006 0.009,-1.0115 0.27474,-1.0719 0.58966,-0.11227 0.65084,0.89569 0.38128,0.93725 6.5e-4,0.006 0.89712,-0.0563 -1.1e-4,-0.006 0.26059,-0.97754 0.53322,-0.97003 0.59913,0.0376 0.40715,1.02907 0.13579,1.00246 -9.2e-4,0.006 0.88297,0.16809 0.001,-0.006 0.496,-0.88214 0.75817,-0.80719 0.57092,0.18513 0.13798,1.09781 -0.11827,1.00464 -0.002,0.006 0.81334,0.38197 0.003,-0.005 0.70023,-0.73132 0.93547,-0.5937 0.50686,0.32104 -0.13991,1.09755 -0.36489,0.94372 -0.004,0.005 0.69262,0.57185 0.004,-0.005 0.86046,-0.53453 1.05401,-0.34285 0.41096,0.43672 -0.40904,1.02837 -0.58857,0.8235 -0.005,0.004 0.52836,0.72577 0.005,-0.003 0.96665,-0.30421 1.10634,-0.0704 0.28923,0.525 -0.65242,0.89451 -0.77533,0.65157 -0.006,0.002 0.33091,0.83415 0.006,-0.002 1.01206,-0.0548 1.08917,0.20637 0.14928,0.58033 -0.85482,0.70449 -0.91331,0.4386 -0.006,10e-4 z"
       style="fill:#f08818;fill-opacity:1;stroke:none;stroke-width:0.0533601" />
  </g>
  <circle
     style="fill:#ffffff;fill-opacity:1;stroke-width:1.23188"
     id="path1491"
     cx="50"
     cy="50"
     r="42" />
  <g
     id="g1467"
     transform="translate(0,-3.8000002)">
    <circle
       cx="50"
       cy="21"
       r="4.6999998"
       fill="hsl(0 100% 60%)"
       id="circle2"
       style="fill:#ff3333;fill-opacity:1" />
    <circle
       cx="50"
       cy="56"
       fill="#000000"
       r="15"
       id="circle4" />
    <circle
       cx="50"
       cy="84"
       fill="hsl(28 100% 50.2%)"
       r="7"
       id="circle6"
       style="fill:#ff7801;fill-opacity:1" />
  </g>
</svg>
